<svg version="1.1" xmlns="http://www.w3.org/2000/svg" xmlns:xlink="http://www.w3.org/1999/xlink" width="1020" height="556"><defs/><g><text fill="#eeeeee" stroke="none" font-family="Arial" font-size="24px" font-style="normal" font-weight="normal" text-decoration="none" x="0" y="0">UNREGISTERED</text><text fill="#eeeeee" stroke="none" font-family="Arial" font-size="24px" font-style="normal" font-weight="normal" text-decoration="none" x="0" y="30">UNREGISTERED</text><text fill="#eeeeee" stroke="none" font-family="Arial" font-size="24px" font-style="normal" font-weight="normal" text-decoration="none" x="0" y="60">UNREGISTERED</text><text fill="#eeeeee" stroke="none" font-family="Arial" font-size="24px" font-style="normal" font-weight="normal" text-decoration="none" x="0" y="90">UNREGISTERED</text><text fill="#eeeeee" stroke="none" font-family="Arial" font-size="24px" font-style="normal" font-weight="normal" text-decoration="none" x="0" y="120">UNREGISTERED</text><text fill="#eeeeee" stroke="none" font-family="Arial" font-size="24px" font-style="normal" font-weight="normal" text-decoration="none" x="0" y="150">UNREGISTERED</text><text fill="#eeeeee" stroke="none" font-family="Arial" font-size="24px" font-style="normal" font-weight="normal" text-decoration="none" x="0" y="180">UNREGISTERED</text><text fill="#eeeeee" stroke="none" font-family="Arial" font-size="24px" font-style="normal" font-weight="normal" text-decoration="none" x="0" y="210">UNREGISTERED</text><text fill="#eeeeee" stroke="none" font-family="Arial" font-size="24px" font-style="normal" font-weight="normal" text-decoration="none" x="0" y="240">UNREGISTERED</text><text fill="#eeeeee" stroke="none" font-family="Arial" font-size="24px" font-style="normal" font-weight="normal" text-decoration="none" x="0" y="270">UNREGISTERED</text><text fill="#eeeeee" stroke="none" font-family="Arial" font-size="24px" font-style="normal" font-weight="normal" text-decoration="none" x="0" y="300">UNREGISTERED</text><text fill="#eeeeee" stroke="none" font-family="Arial" font-size="24px" font-style="normal" font-weight="normal" text-decoration="none" x="0" y="330">UNREGISTERED</text><text fill="#eeeeee" stroke="none" font-family="Arial" font-size="24px" font-style="normal" font-weight="normal" text-decoration="none" x="0" y="360">UNREGISTERED</text><text fill="#eeeeee" stroke="none" font-family="Arial" font-size="24px" font-style="normal" font-weight="normal" text-decoration="none" x="0" y="390">UNREGISTERED</text><text fill="#eeeeee" stroke="none" font-family="Arial" font-size="24px" font-style="normal" font-weight="normal" text-decoration="none" x="0" y="420">UNREGISTERED</text><text fill="#eeeeee" stroke="none" font-family="Arial" font-size="24px" font-style="normal" font-weight="normal" text-decoration="none" x="0" y="450">UNREGISTERED</text><text fill="#eeeeee" stroke="none" font-family="Arial" font-size="24px" font-style="normal" font-weight="normal" text-decoration="none" x="0" y="480">UNREGISTERED</text><text fill="#eeeeee" stroke="none" font-family="Arial" font-size="24px" font-style="normal" font-weight="normal" text-decoration="none" x="0" y="510">UNREGISTERED</text><text fill="#eeeeee" stroke="none" font-family="Arial" font-size="24px" font-style="normal" font-weight="normal" text-decoration="none" x="0" y="540">UNREGISTERED</text><text fill="#eeeeee" stroke="none" font-family="Arial" font-size="24px" font-style="normal" font-weight="normal" text-decoration="none" x="200" y="0">UNREGISTERED</text><text fill="#eeeeee" stroke="none" font-family="Arial" font-size="24px" font-style="normal" font-weight="normal" text-decoration="none" x="200" y="30">UNREGISTERED</text><text fill="#eeeeee" stroke="none" font-family="Arial" font-size="24px" font-style="normal" font-weight="normal" text-decoration="none" x="200" y="60">UNREGISTERED</text><text fill="#eeeeee" stroke="none" font-family="Arial" font-size="24px" font-style="normal" font-weight="normal" text-decoration="none" x="200" y="90">UNREGISTERED</text><text fill="#eeeeee" stroke="none" font-family="Arial" font-size="24px" font-style="normal" font-weight="normal" text-decoration="none" x="200" y="120">UNREGISTERED</text><text fill="#eeeeee" stroke="none" font-family="Arial" font-size="24px" font-style="normal" font-weight="normal" text-decoration="none" x="200" y="150">UNREGISTERED</text><text fill="#eeeeee" stroke="none" font-family="Arial" font-size="24px" font-style="normal" font-weight="normal" text-decoration="none" x="200" y="180">UNREGISTERED</text><text fill="#eeeeee" stroke="none" font-family="Arial" font-size="24px" font-style="normal" font-weight="normal" text-decoration="none" x="200" y="210">UNREGISTERED</text><text fill="#eeeeee" stroke="none" font-family="Arial" font-size="24px" font-style="normal" font-weight="normal" text-decoration="none" x="200" y="240">UNREGISTERED</text><text fill="#eeeeee" stroke="none" font-family="Arial" font-size="24px" font-style="normal" font-weight="normal" text-decoration="none" x="200" y="270">UNREGISTERED</text><text fill="#eeeeee" stroke="none" font-family="Arial" font-size="24px" font-style="normal" font-weight="normal" text-decoration="none" x="200" y="300">UNREGISTERED</text><text fill="#eeeeee" stroke="none" font-family="Arial" font-size="24px" font-style="normal" font-weight="normal" text-decoration="none" x="200" y="330">UNREGISTERED</text><text fill="#eeeeee" stroke="none" font-family="Arial" font-size="24px" font-style="normal" font-weight="normal" text-decoration="none" x="200" y="360">UNREGISTERED</text><text fill="#eeeeee" stroke="none" font-family="Arial" font-size="24px" font-style="normal" font-weight="normal" text-decoration="none" x="200" y="390">UNREGISTERED</text><text fill="#eeeeee" stroke="none" font-family="Arial" font-size="24px" font-style="normal" font-weight="normal" text-decoration="none" x="200" y="420">UNREGISTERED</text><text fill="#eeeeee" stroke="none" font-family="Arial" font-size="24px" font-style="normal" font-weight="normal" text-decoration="none" x="200" y="450">UNREGISTERED</text><text fill="#eeeeee" stroke="none" font-family="Arial" font-size="24px" font-style="normal" font-weight="normal" text-decoration="none" x="200" y="480">UNREGISTERED</text><text fill="#eeeeee" stroke="none" font-family="Arial" font-size="24px" font-style="normal" font-weight="normal" text-decoration="none" x="200" y="510">UNREGISTERED</text><text fill="#eeeeee" stroke="none" font-family="Arial" font-size="24px" font-style="normal" font-weight="normal" text-decoration="none" x="200" y="540">UNREGISTERED</text><text fill="#eeeeee" stroke="none" font-family="Arial" font-size="24px" font-style="normal" font-weight="normal" text-decoration="none" x="400" y="0">UNREGISTERED</text><text fill="#eeeeee" stroke="none" font-family="Arial" font-size="24px" font-style="normal" font-weight="normal" text-decoration="none" x="400" y="30">UNREGISTERED</text><text fill="#eeeeee" stroke="none" font-family="Arial" font-size="24px" font-style="normal" font-weight="normal" text-decoration="none" x="400" y="60">UNREGISTERED</text><text fill="#eeeeee" stroke="none" font-family="Arial" font-size="24px" font-style="normal" font-weight="normal" text-decoration="none" x="400" y="90">UNREGISTERED</text><text fill="#eeeeee" stroke="none" font-family="Arial" font-size="24px" font-style="normal" font-weight="normal" text-decoration="none" x="400" y="120">UNREGISTERED</text><text fill="#eeeeee" stroke="none" font-family="Arial" font-size="24px" font-style="normal" font-weight="normal" text-decoration="none" x="400" y="150">UNREGISTERED</text><text fill="#eeeeee" stroke="none" font-family="Arial" font-size="24px" font-style="normal" font-weight="normal" text-decoration="none" x="400" y="180">UNREGISTERED</text><text fill="#eeeeee" stroke="none" font-family="Arial" font-size="24px" font-style="normal" font-weight="normal" text-decoration="none" x="400" y="210">UNREGISTERED</text><text fill="#eeeeee" stroke="none" font-family="Arial" font-size="24px" font-style="normal" font-weight="normal" text-decoration="none" x="400" y="240">UNREGISTERED</text><text fill="#eeeeee" stroke="none" font-family="Arial" font-size="24px" font-style="normal" font-weight="normal" text-decoration="none" x="400" y="270">UNREGISTERED</text><text fill="#eeeeee" stroke="none" font-family="Arial" font-size="24px" font-style="normal" font-weight="normal" text-decoration="none" x="400" y="300">UNREGISTERED</text><text fill="#eeeeee" stroke="none" font-family="Arial" font-size="24px" font-style="normal" font-weight="normal" text-decoration="none" x="400" y="330">UNREGISTERED</text><text fill="#eeeeee" stroke="none" font-family="Arial" font-size="24px" font-style="normal" font-weight="normal" text-decoration="none" x="400" y="360">UNREGISTERED</text><text fill="#eeeeee" stroke="none" font-family="Arial" font-size="24px" font-style="normal" font-weight="normal" text-decoration="none" x="400" y="390">UNREGISTERED</text><text fill="#eeeeee" stroke="none" font-family="Arial" font-size="24px" font-style="normal" font-weight="normal" text-decoration="none" x="400" y="420">UNREGISTERED</text><text fill="#eeeeee" stroke="none" font-family="Arial" font-size="24px" font-style="normal" font-weight="normal" text-decoration="none" x="400" y="450">UNREGISTERED</text><text fill="#eeeeee" stroke="none" font-family="Arial" font-size="24px" font-style="normal" font-weight="normal" text-decoration="none" x="400" y="480">UNREGISTERED</text><text fill="#eeeeee" stroke="none" font-family="Arial" font-size="24px" font-style="normal" font-weight="normal" text-decoration="none" x="400" y="510">UNREGISTERED</text><text fill="#eeeeee" stroke="none" font-family="Arial" font-size="24px" font-style="normal" font-weight="normal" text-decoration="none" x="400" y="540">UNREGISTERED</text><text fill="#eeeeee" stroke="none" font-family="Arial" font-size="24px" font-style="normal" font-weight="normal" text-decoration="none" x="600" y="0">UNREGISTERED</text><text fill="#eeeeee" stroke="none" font-family="Arial" font-size="24px" font-style="normal" font-weight="normal" text-decoration="none" x="600" y="30">UNREGISTERED</text><text fill="#eeeeee" stroke="none" font-family="Arial" font-size="24px" font-style="normal" font-weight="normal" text-decoration="none" x="600" y="60">UNREGISTERED</text><text fill="#eeeeee" stroke="none" font-family="Arial" font-size="24px" font-style="normal" font-weight="normal" text-decoration="none" x="600" y="90">UNREGISTERED</text><text fill="#eeeeee" stroke="none" font-family="Arial" font-size="24px" font-style="normal" font-weight="normal" text-decoration="none" x="600" y="120">UNREGISTERED</text><text fill="#eeeeee" stroke="none" font-family="Arial" font-size="24px" font-style="normal" font-weight="normal" text-decoration="none" x="600" y="150">UNREGISTERED</text><text fill="#eeeeee" stroke="none" font-family="Arial" font-size="24px" font-style="normal" font-weight="normal" text-decoration="none" x="600" y="180">UNREGISTERED</text><text fill="#eeeeee" stroke="none" font-family="Arial" font-size="24px" font-style="normal" font-weight="normal" text-decoration="none" x="600" y="210">UNREGISTERED</text><text fill="#eeeeee" stroke="none" font-family="Arial" font-size="24px" font-style="normal" font-weight="normal" text-decoration="none" x="600" y="240">UNREGISTERED</text><text fill="#eeeeee" stroke="none" font-family="Arial" font-size="24px" font-style="normal" font-weight="normal" text-decoration="none" x="600" y="270">UNREGISTERED</text><text fill="#eeeeee" stroke="none" font-family="Arial" font-size="24px" font-style="normal" font-weight="normal" text-decoration="none" x="600" y="300">UNREGISTERED</text><text fill="#eeeeee" stroke="none" font-family="Arial" font-size="24px" font-style="normal" font-weight="normal" text-decoration="none" x="600" y="330">UNREGISTERED</text><text fill="#eeeeee" stroke="none" font-family="Arial" font-size="24px" font-style="normal" font-weight="normal" text-decoration="none" x="600" y="360">UNREGISTERED</text><text fill="#eeeeee" stroke="none" font-family="Arial" font-size="24px" font-style="normal" font-weight="normal" text-decoration="none" x="600" y="390">UNREGISTERED</text><text fill="#eeeeee" stroke="none" font-family="Arial" font-size="24px" font-style="normal" font-weight="normal" text-decoration="none" x="600" y="420">UNREGISTERED</text><text fill="#eeeeee" stroke="none" font-family="Arial" font-size="24px" font-style="normal" font-weight="normal" text-decoration="none" x="600" y="450">UNREGISTERED</text><text fill="#eeeeee" stroke="none" font-family="Arial" font-size="24px" font-style="normal" font-weight="normal" text-decoration="none" x="600" y="480">UNREGISTERED</text><text fill="#eeeeee" stroke="none" font-family="Arial" font-size="24px" font-style="normal" font-weight="normal" text-decoration="none" x="600" y="510">UNREGISTERED</text><text fill="#eeeeee" stroke="none" font-family="Arial" font-size="24px" font-style="normal" font-weight="normal" text-decoration="none" x="600" y="540">UNREGISTERED</text><text fill="#eeeeee" stroke="none" font-family="Arial" font-size="24px" font-style="normal" font-weight="normal" text-decoration="none" x="800" y="0">UNREGISTERED</text><text fill="#eeeeee" stroke="none" font-family="Arial" font-size="24px" font-style="normal" font-weight="normal" text-decoration="none" x="800" y="30">UNREGISTERED</text><text fill="#eeeeee" stroke="none" font-family="Arial" font-size="24px" font-style="normal" font-weight="normal" text-decoration="none" x="800" y="60">UNREGISTERED</text><text fill="#eeeeee" stroke="none" font-family="Arial" font-size="24px" font-style="normal" font-weight="normal" text-decoration="none" x="800" y="90">UNREGISTERED</text><text fill="#eeeeee" stroke="none" font-family="Arial" font-size="24px" font-style="normal" font-weight="normal" text-decoration="none" x="800" y="120">UNREGISTERED</text><text fill="#eeeeee" stroke="none" font-family="Arial" font-size="24px" font-style="normal" font-weight="normal" text-decoration="none" x="800" y="150">UNREGISTERED</text><text fill="#eeeeee" stroke="none" font-family="Arial" font-size="24px" font-style="normal" font-weight="normal" text-decoration="none" x="800" y="180">UNREGISTERED</text><text fill="#eeeeee" stroke="none" font-family="Arial" font-size="24px" font-style="normal" font-weight="normal" text-decoration="none" x="800" y="210">UNREGISTERED</text><text fill="#eeeeee" stroke="none" font-family="Arial" font-size="24px" font-style="normal" font-weight="normal" text-decoration="none" x="800" y="240">UNREGISTERED</text><text fill="#eeeeee" stroke="none" font-family="Arial" font-size="24px" font-style="normal" font-weight="normal" text-decoration="none" x="800" y="270">UNREGISTERED</text><text fill="#eeeeee" stroke="none" font-family="Arial" font-size="24px" font-style="normal" font-weight="normal" text-decoration="none" x="800" y="300">UNREGISTERED</text><text fill="#eeeeee" stroke="none" font-family="Arial" font-size="24px" font-style="normal" font-weight="normal" text-decoration="none" x="800" y="330">UNREGISTERED</text><text fill="#eeeeee" stroke="none" font-family="Arial" font-size="24px" font-style="normal" font-weight="normal" text-decoration="none" x="800" y="360">UNREGISTERED</text><text fill="#eeeeee" stroke="none" font-family="Arial" font-size="24px" font-style="normal" font-weight="normal" text-decoration="none" x="800" y="390">UNREGISTERED</text><text fill="#eeeeee" stroke="none" font-family="Arial" font-size="24px" font-style="normal" font-weight="normal" text-decoration="none" x="800" y="420">UNREGISTERED</text><text fill="#eeeeee" stroke="none" font-family="Arial" font-size="24px" font-style="normal" font-weight="normal" text-decoration="none" x="800" y="450">UNREGISTERED</text><text fill="#eeeeee" stroke="none" font-family="Arial" font-size="24px" font-style="normal" font-weight="normal" text-decoration="none" x="800" y="480">UNREGISTERED</text><text fill="#eeeeee" stroke="none" font-family="Arial" font-size="24px" font-style="normal" font-weight="normal" text-decoration="none" x="800" y="510">UNREGISTERED</text><text fill="#eeeeee" stroke="none" font-family="Arial" font-size="24px" font-style="normal" font-weight="normal" text-decoration="none" x="800" y="540">UNREGISTERED</text><text fill="#eeeeee" stroke="none" font-family="Arial" font-size="24px" font-style="normal" font-weight="normal" text-decoration="none" x="1000" y="0">UNREGISTERED</text><text fill="#eeeeee" stroke="none" font-family="Arial" font-size="24px" font-style="normal" font-weight="normal" text-decoration="none" x="1000" y="30">UNREGISTERED</text><text fill="#eeeeee" stroke="none" font-family="Arial" font-size="24px" font-style="normal" font-weight="normal" text-decoration="none" x="1000" y="60">UNREGISTERED</text><text fill="#eeeeee" stroke="none" font-family="Arial" font-size="24px" font-style="normal" font-weight="normal" text-decoration="none" x="1000" y="90">UNREGISTERED</text><text fill="#eeeeee" stroke="none" font-family="Arial" font-size="24px" font-style="normal" font-weight="normal" text-decoration="none" x="1000" y="120">UNREGISTERED</text><text fill="#eeeeee" stroke="none" font-family="Arial" font-size="24px" font-style="normal" font-weight="normal" text-decoration="none" x="1000" y="150">UNREGISTERED</text><text fill="#eeeeee" stroke="none" font-family="Arial" font-size="24px" font-style="normal" font-weight="normal" text-decoration="none" x="1000" y="180">UNREGISTERED</text><text fill="#eeeeee" stroke="none" font-family="Arial" font-size="24px" font-style="normal" font-weight="normal" text-decoration="none" x="1000" y="210">UNREGISTERED</text><text fill="#eeeeee" stroke="none" font-family="Arial" font-size="24px" font-style="normal" font-weight="normal" text-decoration="none" x="1000" y="240">UNREGISTERED</text><text fill="#eeeeee" stroke="none" font-family="Arial" font-size="24px" font-style="normal" font-weight="normal" text-decoration="none" x="1000" y="270">UNREGISTERED</text><text fill="#eeeeee" stroke="none" font-family="Arial" font-size="24px" font-style="normal" font-weight="normal" text-decoration="none" x="1000" y="300">UNREGISTERED</text><text fill="#eeeeee" stroke="none" font-family="Arial" font-size="24px" font-style="normal" font-weight="normal" text-decoration="none" x="1000" y="330">UNREGISTERED</text><text fill="#eeeeee" stroke="none" font-family="Arial" font-size="24px" font-style="normal" font-weight="normal" text-decoration="none" x="1000" y="360">UNREGISTERED</text><text fill="#eeeeee" stroke="none" font-family="Arial" font-size="24px" font-style="normal" font-weight="normal" text-decoration="none" x="1000" y="390">UNREGISTERED</text><text fill="#eeeeee" stroke="none" font-family="Arial" font-size="24px" font-style="normal" font-weight="normal" text-decoration="none" x="1000" y="420">UNREGISTERED</text><text fill="#eeeeee" stroke="none" font-family="Arial" font-size="24px" font-style="normal" font-weight="normal" text-decoration="none" x="1000" y="450">UNREGISTERED</text><text fill="#eeeeee" stroke="none" font-family="Arial" font-size="24px" font-style="normal" font-weight="normal" text-decoration="none" x="1000" y="480">UNREGISTERED</text><text fill="#eeeeee" stroke="none" font-family="Arial" font-size="24px" font-style="normal" font-weight="normal" text-decoration="none" x="1000" y="510">UNREGISTERED</text><text fill="#eeeeee" stroke="none" font-family="Arial" font-size="24px" font-style="normal" font-weight="normal" text-decoration="none" x="1000" y="540">UNREGISTERED</text><g transform="translate(-478,-278) scale(1,1)"><rect fill="#C0C0C0" stroke="none" x="663" y="295" width="832" height="536" opacity="0.2"/></g><g transform="translate(-478,-278) scale(1,1)"><rect fill="#ffffff" stroke="none" x="656" y="288" width="832" height="536"/></g><g transform="translate(-478,-278) scale(1,1)"><path fill="none" stroke="#000000" d="M 656 288 L 1488 288 L 1488 824 L 656 824 L 656 288 Z Z" stroke-miterlimit="10"/></g><g transform="translate(-478,-278) scale(1,1)"><g><path fill="none" stroke="none"/><text fill="#000000" stroke="none" font-family="Arial" font-size="13px" font-style="normal" font-weight="bold" text-decoration="none" x="1029.37548828125" y="307.5">Air Supremacy</text></g></g><g transform="translate(-478,-278) scale(1,1)"><path fill="#ffffff" stroke="none" d="M 510.9632727272727 517.76 C 510.9632727272727 510.712845952 516.5761560855273 505 523.5 505 C 530.4238439144727 505 536.0367272727273 510.712845952 536.0367272727273 517.76 C 536.0367272727273 524.807154048 530.4238439144727 530.52 523.5 530.52 C 516.5761560855273 530.52 510.9632727272727 524.807154048 510.9632727272727 517.76 Z"/></g><g transform="translate(-478,-278) scale(1,1)"><path fill="none" stroke="#000000" d="M 510.9632727272727 517.76 C 510.9632727272727 510.712845952 516.5761560855273 505 523.5 505 C 530.4238439144727 505 536.0367272727273 510.712845952 536.0367272727273 517.76 C 536.0367272727273 524.807154048 530.4238439144727 530.52 523.5 530.52 C 516.5761560855273 530.52 510.9632727272727 524.807154048 510.9632727272727 517.76 Z" stroke-miterlimit="10"/></g><g transform="translate(-478,-278) scale(1,1)"><path fill="none" stroke="#000000" d="M 523.5 530.52 L 523.5 555.48" stroke-miterlimit="10"/></g><g transform="translate(-478,-278) scale(1,1)"><path fill="none" stroke="#000000" d="M 510.2258181818181 539.88 L 536.7741818181819 539.88" stroke-miterlimit="10"/></g><g transform="translate(-478,-278) scale(1,1)"><path fill="none" stroke="#000000" d="M 523.5 555.48 L 505.0636363636363 581" stroke-miterlimit="10"/></g><g transform="translate(-478,-278) scale(1,1)"><path fill="none" stroke="#000000" d="M 523.5 555.48 L 541.9363636363637 581" stroke-miterlimit="10"/></g><g transform="translate(-478,-278) scale(1,1)"><g><path fill="none" stroke="none"/><text fill="#000000" stroke="none" font-family="Arial" font-size="13px" font-style="normal" font-weight="bold" text-decoration="none" x="503.62548828125" y="601.5">Joueur</text></g></g><g transform="translate(-478,-278) scale(1,1)"><path fill="#C0C0C0" stroke="none" d="M 839 407 C 839 389.3268864 876.1603616 375 922 375 C 967.8396384 375 1005 389.3268864 1005 407 C 1005 424.6731136 967.8396384 439 922 439 C 876.1603616 439 839 424.6731136 839 407 Z" opacity="0.2"/></g><g transform="translate(-478,-278) scale(1,1)"><path fill="#ffffff" stroke="none" d="M 832 400 C 832 382.3268864 869.1603616 368 915 368 C 960.8396384 368 998 382.3268864 998 400 C 998 417.6731136 960.8396384 432 915 432 C 869.1603616 432 832 417.6731136 832 400 Z"/></g><g transform="translate(-478,-278) scale(1,1)"><path fill="none" stroke="#000000" d="M 832 400 C 832 382.3268864 869.1603616 368 915 368 C 960.8396384 368 998 382.3268864 998 400 C 998 417.6731136 960.8396384 432 915 432 C 869.1603616 432 832 417.6731136 832 400 Z" stroke-miterlimit="10"/></g><g transform="translate(-478,-278) scale(1,1)"><g><path fill="none" stroke="none"/><text fill="#000000" stroke="none" font-family="Arial" font-size="13px" font-style="normal" font-weight="bold" text-decoration="none" x="864.4091796875" y="407">Lancer une partie</text></g></g><g transform="translate(-478,-278) scale(1,1)"><path fill="#C0C0C0" stroke="none" d="M 815 550.5 C 815 533.1030288 851.2649312 519 896 519 C 940.7350688 519 977 533.1030288 977 550.5 C 977 567.8969712 940.7350688 582 896 582 C 851.2649312 582 815 567.8969712 815 550.5 Z" opacity="0.2"/></g><g transform="translate(-478,-278) scale(1,1)"><path fill="#ffffff" stroke="none" d="M 808 543.5 C 808 526.1030288 844.2649312 512 889 512 C 933.7350688 512 970 526.1030288 970 543.5 C 970 560.8969712 933.7350688 575 889 575 C 844.2649312 575 808 560.8969712 808 543.5 Z"/></g><g transform="translate(-478,-278) scale(1,1)"><path fill="none" stroke="#000000" d="M 808 543.5 C 808 526.1030288 844.2649312 512 889 512 C 933.7350688 512 970 526.1030288 970 543.5 C 970 560.8969712 933.7350688 575 889 575 C 844.2649312 575 808 560.8969712 808 543.5 Z" stroke-miterlimit="10"/></g><g transform="translate(-478,-278) scale(1,1)"><g><path fill="none" stroke="none"/><text fill="#000000" stroke="none" font-family="Arial" font-size="13px" font-style="normal" font-weight="bold" text-decoration="none" x="840.21826171875" y="550.5">Acheter un avion</text></g></g><g transform="translate(-478,-278) scale(1,1)"><path fill="#C0C0C0" stroke="none" d="M 783 691 C 783 671.1177472 835.606536 655 900.5 655 C 965.393464 655 1018 671.1177472 1018 691 C 1018 710.8822528 965.393464 727 900.5 727 C 835.606536 727 783 710.8822528 783 691 Z" opacity="0.2"/></g><g transform="translate(-478,-278) scale(1,1)"><path fill="#ffffff" stroke="none" d="M 776 684 C 776 664.1177472 828.606536 648 893.5 648 C 958.393464 648 1011 664.1177472 1011 684 C 1011 703.8822528 958.393464 720 893.5 720 C 828.606536 720 776 703.8822528 776 684 Z"/></g><g transform="translate(-478,-278) scale(1,1)"><path fill="none" stroke="#000000" d="M 776 684 C 776 664.1177472 828.606536 648 893.5 648 C 958.393464 648 1011 664.1177472 1011 684 C 1011 703.8822528 958.393464 720 893.5 720 C 828.606536 720 776 703.8822528 776 684 Z" stroke-miterlimit="10"/></g><g transform="translate(-478,-278) scale(1,1)"><g><path fill="none" stroke="none"/><text fill="#000000" stroke="none" font-family="Arial" font-size="13px" font-style="normal" font-weight="bold" text-decoration="none" x="820.511474609375" y="691">Sauvegarder progression</text></g></g><g transform="translate(-478,-278) scale(1,1)"><path fill="none" stroke="#000000" d="M 560 540 L 832 433" stroke-miterlimit="10"/></g><g transform="translate(-478,-278) scale(1,1)"><path fill="none" stroke="#000000" d="M 560 554 L 807 546" stroke-miterlimit="10"/></g><g transform="translate(-478,-278) scale(1,1)"><path fill="none" stroke="#000000" d="M 560 568 L 787 647" stroke-miterlimit="10"/></g><g transform="translate(-478,-278) scale(1,1)"><path fill="#C0C0C0" stroke="none" d="M 1111 410.5 C 1111 395.312168 1148.3842192 383 1194.5 383 C 1240.6157808 383 1278 395.312168 1278 410.5 C 1278 425.687832 1240.6157808 438 1194.5 438 C 1148.3842192 438 1111 425.687832 1111 410.5 Z" opacity="0.2"/></g><g transform="translate(-478,-278) scale(1,1)"><path fill="#ffffff" stroke="none" d="M 1104 403.5 C 1104 388.312168 1141.3842192 376 1187.5 376 C 1233.6157808 376 1271 388.312168 1271 403.5 C 1271 418.687832 1233.6157808 431 1187.5 431 C 1141.3842192 431 1104 418.687832 1104 403.5 Z"/></g><g transform="translate(-478,-278) scale(1,1)"><path fill="none" stroke="#000000" d="M 1104 403.5 C 1104 388.312168 1141.3842192 376 1187.5 376 C 1233.6157808 376 1271 388.312168 1271 403.5 C 1271 418.687832 1233.6157808 431 1187.5 431 C 1141.3842192 431 1104 418.687832 1104 403.5 Z" stroke-miterlimit="10"/></g><g transform="translate(-478,-278) scale(1,1)"><g><path fill="none" stroke="none"/><text fill="#000000" stroke="none" font-family="Arial" font-size="13px" font-style="normal" font-weight="bold" text-decoration="none" x="1140.892333984375" y="410.5">Choisir un avion</text></g></g><g transform="translate(-478,-278) scale(1,1)"><path fill="#C0C0C0" stroke="none" d="M 1231 534.5 C 1231 517.1030288 1286.5166848 503 1355 503 C 1423.4833152 503 1479 517.1030288 1479 534.5 C 1479 551.8969712 1423.4833152 566 1355 566 C 1286.5166848 566 1231 551.8969712 1231 534.5 Z" opacity="0.2"/></g><g transform="translate(-478,-278) scale(1,1)"><path fill="#ffffff" stroke="none" d="M 1224 527.5 C 1224 510.1030288 1279.5166848 496 1348 496 C 1416.4833152 496 1472 510.1030288 1472 527.5 C 1472 544.8969712 1416.4833152 559 1348 559 C 1279.5166848 559 1224 544.8969712 1224 527.5 Z"/></g><g transform="translate(-478,-278) scale(1,1)"><path fill="none" stroke="#000000" d="M 1224 527.5 C 1224 510.1030288 1279.5166848 496 1348 496 C 1416.4833152 496 1472 510.1030288 1472 527.5 C 1472 544.8969712 1416.4833152 559 1348 559 C 1279.5166848 559 1224 544.8969712 1224 527.5 Z" stroke-miterlimit="10"/></g><g transform="translate(-478,-278) scale(1,1)"><g><path fill="none" stroke="none"/><text fill="#000000" stroke="none" font-family="Arial" font-size="13px" font-style="normal" font-weight="bold" text-decoration="none" x="1270.51416015625" y="534.5">Changer le nom d'un avion</text></g></g><g transform="translate(-478,-278) scale(1,1)"><path fill="none" stroke="#000000" d="M 999 401 L 1103 402" stroke-miterlimit="10" stroke-dasharray="3"/></g><g transform="translate(-478,-278) scale(1,1)"><path fill="none" stroke="#000000" d="M 1092.7973206467345 406.111609662219 L 1103 402 L 1092.8782691692868 397.69296331678123" stroke-miterlimit="10"/></g><g transform="translate(-478,-278) scale(1,1)"><g><path fill="none" stroke="none"/><text fill="#000000" stroke="none" font-family="Arial" font-size="13px" font-style="normal" font-weight="normal" text-decoration="none" x="1023.5" y="377.5">«include»</text></g></g><g transform="translate(-478,-278) scale(1,1)"><path fill="none" stroke="#000000" d="M 971 568 L 1148 623" stroke-miterlimit="10" stroke-dasharray="3"/></g><g transform="translate(-478,-278) scale(1,1)"><path fill="none" stroke="#000000" d="M 1137.045938380731 624.0042579555371 L 1148 623 L 1139.5441911370588 615.9644263579005" stroke-miterlimit="10"/></g><g transform="translate(-478,-278) scale(1,1)"><g><path fill="none" stroke="none"/><text fill="#000000" stroke="none" font-family="Arial" font-size="13px" font-style="normal" font-weight="normal" text-decoration="none" x="1040.5" y="572.5">«include»</text></g></g><g transform="translate(-478,-278) scale(1,1)"><path fill="none" stroke="#000000" d="M 1306 495 L 1225 432" stroke-miterlimit="10" stroke-dasharray="3"/></g><g transform="translate(-478,-278) scale(1,1)"><path fill="none" stroke="#000000" d="M 1235.6063238470706 434.9164866622462 L 1225 432 L 1230.4375360196098 441.56207101183867" stroke-miterlimit="10"/></g><g transform="translate(-478,-278) scale(1,1)"><g><path fill="none" stroke="none"/><text fill="#000000" stroke="none" font-family="Arial" font-size="13px" font-style="normal" font-weight="normal" text-decoration="none" x="1219.5" y="492.5">«extend»</text></g></g><g transform="translate(-478,-278) scale(1,1)"><path fill="#C0C0C0" stroke="none" d="M 1151 662.5 C 1151 645.1030288 1199.129384 631 1258.5 631 C 1317.870616 631 1366 645.1030288 1366 662.5 C 1366 679.8969712 1317.870616 694 1258.5 694 C 1199.129384 694 1151 679.8969712 1151 662.5 Z" opacity="0.2"/></g><g transform="translate(-478,-278) scale(1,1)"><path fill="#ffffff" stroke="none" d="M 1144 655.5 C 1144 638.1030288 1192.129384 624 1251.5 624 C 1310.870616 624 1359 638.1030288 1359 655.5 C 1359 672.8969712 1310.870616 687 1251.5 687 C 1192.129384 687 1144 672.8969712 1144 655.5 Z"/></g><g transform="translate(-478,-278) scale(1,1)"><path fill="none" stroke="#000000" d="M 1144 655.5 C 1144 638.1030288 1192.129384 624 1251.5 624 C 1310.870616 624 1359 638.1030288 1359 655.5 C 1359 672.8969712 1310.870616 687 1251.5 687 C 1192.129384 687 1144 672.8969712 1144 655.5 Z" stroke-miterlimit="10"/></g><g transform="translate(-478,-278) scale(1,1)"><g><path fill="none" stroke="none"/><text fill="#000000" stroke="none" font-family="Arial" font-size="13px" font-style="normal" font-weight="bold" text-decoration="none" x="1185.02099609375" y="662.5">Choisir avion à acheter</text></g></g></g></svg>